
<svg class="logo-svg" preserveAspectRatio="xMinYMin meet" width="268px" height="57px" viewBox="0 0 268 57" version="1.1" xmlns="http://www.w3.org/2000/svg" xmlns:xlink="http://www.w3.org/1999/xlink">
    <g id="Symbols" stroke="none" stroke-width="1" fill="none" fill-rule="evenodd">
        <g id="logo-fullsize">
            <g>
                <g class="logo-svg__icon" id="icon" transform="translate(210.000000, 0.000000)">
                    <polygon id="Fill-1" fill="#C6302A" points="0.944 57 57.544 57 57.544 0.397 0.944 0.397"></polygon>
                    <path d="M49.361,28.697 C49.361,39.809 40.353,48.817 29.243,48.817 C18.132,48.817 9.125,39.809 9.125,28.697 C9.125,17.587 18.132,8.58 29.243,8.58 C40.353,8.58 49.361,17.587 49.361,28.697" id="Fill-2" fill="#FFFFFF"></path>
                    <path d="M15.045,21.865 L15.235,21.514 C15.528,20.966 15.249,20.484 14.72,20.194 C14.229,19.936 13.663,19.904 13.348,20.49 L13.156,20.849 L15.045,21.865 Z M12.394,21.194 L12.986,20.094 C13.272,19.563 13.978,19 15.062,19.584 C15.996,20.085 16.143,20.894 15.668,21.775 L15.176,22.689 L12.394,21.194 L12.394,21.194 Z" id="Fill-3" fill="#006AA1"></path>
                    <polyline id="Fill-4" fill="#006AA1" points="14.908 17.16 16.286 15.644 16.661 15.983 15.731 17.008 16.302 17.526 17.182 16.557 17.555 16.897 16.676 17.866 17.32 18.45 18.28 17.393 18.655 17.732 17.246 19.283 14.908 17.16"></polyline>
                    <path d="M17.907,14.204 L18.62,13.731 L20.167,14.542 C20.478,14.708 20.871,14.948 21.024,15.098 L21.048,15.08 C20.946,14.958 20.728,14.654 20.543,14.373 L19.662,13.041 L20.172,12.704 L21.916,15.337 L21.182,15.821 L19.383,14.847 C19.188,14.743 18.949,14.583 18.793,14.446 L18.772,14.46 C18.903,14.634 19.055,14.831 19.202,15.053 L20.158,16.499 L19.649,16.837 L17.907,14.204" id="Fill-5" fill="#006AA1"></path>
                    <path d="M24.778,10.893 L25.621,10.753 L26.703,12.124 C26.918,12.403 27.18,12.782 27.257,12.981 L27.287,12.976 C27.245,12.821 27.172,12.455 27.115,12.124 L26.853,10.549 L27.457,10.448 L27.974,13.563 L27.107,13.706 L25.864,12.083 C25.728,11.908 25.574,11.664 25.49,11.476 L25.462,11.481 C25.511,11.693 25.571,11.935 25.612,12.197 L25.897,13.908 L25.293,14.007 L24.778,10.893" id="Fill-6" fill="#006AA1"></path>
                    <path d="M31.653,12.173 C31.737,11.375 31.462,10.999 30.996,10.95 C30.53,10.902 30.184,11.213 30.102,12.013 C30.018,12.81 30.291,13.187 30.76,13.236 C31.227,13.284 31.571,12.972 31.653,12.173 Z M29.406,11.939 C29.518,10.859 30.18,10.357 31.049,10.448 C31.919,10.539 32.462,11.166 32.352,12.246 C32.239,13.327 31.577,13.828 30.707,13.738 C29.838,13.648 29.293,13.021 29.406,11.939 L29.406,11.939 Z" id="Fill-7" fill="#006AA1"></path>
                    <path d="M35.147,12.886 C35.422,12.989 35.632,12.946 35.749,12.638 C35.86,12.339 35.753,12.181 35.522,12.094 L34.978,11.889 L34.669,12.707 L35.147,12.886 Z M34.963,13.338 L34.499,13.163 L34.04,14.388 L33.416,14.153 L34.526,11.198 L35.768,11.665 C36.408,11.905 36.562,12.362 36.371,12.872 C36.212,13.291 35.926,13.411 35.584,13.424 L35.745,15.029 L35.048,14.767 L34.963,13.338 L34.963,13.338 Z" id="Fill-8" fill="#006AA1"></path>
                    <path d="M39.389,14.501 C39.426,14.366 39.49,14.136 39.209,13.945 C38.912,13.743 38.686,13.83 38.586,13.978 C38.497,14.108 38.502,14.204 38.627,14.397 L39.037,15.024 C39.302,15.43 39.348,15.75 39.114,16.095 C38.815,16.535 38.212,16.678 37.548,16.226 C36.944,15.815 36.9,15.281 37.024,14.973 L37.645,15.123 C37.553,15.312 37.522,15.597 37.857,15.826 C38.124,16.005 38.385,15.984 38.525,15.775 C38.62,15.64 38.611,15.485 38.436,15.231 L38.18,14.859 C37.926,14.499 37.711,14.079 37.995,13.665 C38.241,13.302 38.769,13.055 39.473,13.534 C39.907,13.828 40.147,14.149 39.999,14.675 L39.389,14.501" id="Fill-9" fill="#006AA1"></path>
                    <polyline id="Fill-10" fill="#006AA1" points="41.94 15.604 42.385 16.097 41.386 16.998 41.394 17.005 43.115 16.907 43.649 17.496 41.698 17.566 41.358 19.671 40.793 19.046 41.121 17.251 41.115 17.245 40.043 18.213 39.598 17.72 41.94 15.604"></polyline>
                    <polyline id="Fill-11" fill="#006AA1" points="44.74 19.121 45.719 20.92 45.275 21.162 44.615 19.947 43.936 20.316 44.562 21.464 44.12 21.707 43.495 20.557 42.731 20.972 43.411 22.227 42.966 22.468 41.966 20.629 44.74 19.121"></polyline>
                    <polyline id="Fill-12" fill="#006AA1" points="13.469 30.207 13.371 29.348 13.89 29.288 14.165 31.667 13.644 31.727 13.544 30.868 10.927 31.169 10.853 30.508 13.469 30.207"></polyline>
                    <path d="M15.257,35.08 L13.457,35.732 C12.644,36.025 12.073,35.771 11.772,34.944 C11.503,34.203 11.782,33.64 12.594,33.346 L14.395,32.694 L14.614,33.295 L12.812,33.946 C12.357,34.111 12.102,34.369 12.264,34.815 C12.424,35.26 12.786,35.295 13.24,35.13 L15.042,34.479 L15.257,35.08" id="Fill-13" fill="#006AA1"></path>
                    <path d="M15.399,37.985 C15.562,38.228 15.76,38.315 16.032,38.132 C16.297,37.954 16.302,37.764 16.165,37.557 L15.84,37.075 L15.115,37.562 L15.399,37.985 Z M14.987,38.246 L14.711,37.834 L13.625,38.563 L13.253,38.01 L15.875,36.251 L16.614,37.352 C16.995,37.919 16.856,38.38 16.403,38.685 C16.032,38.933 15.728,38.864 15.441,38.677 L14.64,40.076 L14.224,39.457 L14.987,38.246 L14.987,38.246 Z" id="Fill-14" fill="#006AA1"></path>
                    <polyline id="Fill-15" fill="#006AA1" points="18.077 39.158 18.543 39.632 16.297 41.851 15.828 41.376 18.077 39.158"></polyline>
                    <path d="M20.417,42.116 C20.457,41.982 20.524,41.752 20.245,41.557 C19.949,41.353 19.721,41.437 19.621,41.583 C19.53,41.715 19.534,41.809 19.658,42.005 L20.061,42.635 C20.321,43.044 20.362,43.365 20.125,43.707 C19.821,44.144 19.217,44.281 18.558,43.821 C17.959,43.403 17.919,42.868 18.047,42.563 L18.668,42.719 C18.574,42.907 18.538,43.19 18.874,43.425 C19.135,43.607 19.397,43.589 19.541,43.381 C19.635,43.247 19.628,43.092 19.456,42.835 L19.203,42.461 C18.956,42.098 18.745,41.676 19.032,41.265 C19.283,40.905 19.813,40.663 20.511,41.149 C20.94,41.448 21.18,41.772 21.025,42.297 L20.417,42.116" id="Fill-16" fill="#006AA1"></path>
                    <polyline id="Fill-17" fill="#006AA1" points="22.861 43.146 22.061 42.82 22.26 42.336 24.475 43.244 24.278 43.728 23.477 43.399 22.478 45.836 21.864 45.585 22.861 43.146"></polyline>
                    <polyline id="Fill-18" fill="#006AA1" points="25.553 43.527 27.581 43.88 27.495 44.379 26.121 44.139 25.974 44.981 27.291 45.211 27.203 45.71 25.887 45.48 25.666 46.751 25.011 46.637 25.553 43.527"></polyline>
                    <path d="M31.022,45.408 C30.97,44.608 30.636,44.283 30.168,44.314 C29.699,44.345 29.412,44.71 29.465,45.511 C29.518,46.312 29.849,46.637 30.319,46.606 C30.787,46.575 31.074,46.21 31.022,45.408 Z M28.765,45.557 C28.696,44.472 29.264,43.867 30.135,43.81 C31.007,43.753 31.65,44.279 31.72,45.363 C31.792,46.448 31.223,47.054 30.352,47.111 C29.481,47.167 28.836,46.641 28.765,45.557 L28.765,45.557 Z" id="Fill-19" fill="#006AA1"></path>
                    <path d="M34.305,44.455 C34.584,44.365 34.723,44.198 34.62,43.886 C34.522,43.583 34.338,43.524 34.103,43.602 L33.551,43.781 L33.821,44.612 L34.305,44.455 Z M34.444,44.923 L33.973,45.076 L34.375,46.32 L33.745,46.525 L32.768,43.521 L34.03,43.113 C34.677,42.902 35.084,43.161 35.252,43.681 C35.393,44.106 35.243,44.379 34.985,44.603 L36.11,45.756 L35.4,45.986 L34.444,44.923 L34.444,44.923 Z" id="Fill-20" fill="#006AA1"></path>
                    <polyline id="Fill-21" fill="#006AA1" points="36.128 42.25 37.881 41.19 38.143 41.623 36.958 42.34 37.357 42.999 38.477 42.322 38.739 42.756 37.62 43.431 38.069 44.176 39.291 43.437 39.552 43.87 37.761 44.952 36.128 42.25"></polyline>
                    <path d="M38.923,40.417 L39.53,39.812 L41.207,40.297 C41.544,40.396 41.978,40.553 42.158,40.669 L42.178,40.647 C42.053,40.546 41.781,40.293 41.542,40.055 L40.412,38.928 L40.844,38.494 L43.079,40.725 L42.459,41.346 L40.5,40.752 C40.29,40.69 40.022,40.58 39.844,40.477 L39.824,40.496 C39.989,40.639 40.176,40.802 40.364,40.99 L41.59,42.216 L41.159,42.649 L38.923,40.417" id="Fill-22" fill="#006AA1"></path>
                    <polyline id="Fill-23" fill="#006AA1" points="41.653 37.338 42.018 36.783 44.657 38.518 44.291 39.073 41.653 37.338"></polyline>
                    <path d="M42.768,35.571 L43.082,34.775 L44.815,34.555 C45.166,34.513 45.625,34.484 45.834,34.52 L45.845,34.491 C45.691,34.449 45.34,34.324 45.028,34.2 L43.543,33.612 L43.768,33.043 L46.703,34.206 L46.379,35.022 L44.348,35.253 C44.127,35.28 43.84,35.285 43.633,35.26 L43.624,35.286 C43.832,35.353 44.069,35.429 44.315,35.525 L45.927,36.164 L45.703,36.733 L42.768,35.571" id="Fill-24" fill="#006AA1"></path>
                    <path d="M45.196,29.918 C45.015,29.915 44.702,30.127 44.665,30.449 C44.61,30.916 44.916,31.265 45.713,31.357 C46.511,31.452 46.89,31.184 46.945,30.717 C46.97,30.501 46.919,30.286 46.881,30.156 L46.177,30.073 L46.114,30.614 L45.628,30.558 L45.765,29.382 L47.246,29.556 C47.348,29.759 47.51,30.243 47.448,30.775 C47.345,31.644 46.711,32.181 45.632,32.054 C44.552,31.927 44.061,31.258 44.161,30.391 C44.249,29.646 44.624,29.395 45.107,29.287 L45.196,29.918" id="Fill-25" fill="#006AA1"></path>
                    <path d="M12.743,26.8 C13.328,26.8 13.801,26.326 13.801,25.741 C13.801,25.157 13.328,24.684 12.743,24.684 C12.158,24.684 11.686,25.157 11.686,25.741 C11.686,26.326 12.158,26.8 12.743,26.8" id="Fill-26" fill="#006AA1"></path>
                    <path d="M45.559,26.8 C46.147,26.8 46.618,26.326 46.618,25.741 C46.618,25.157 46.147,24.684 45.559,24.684 C44.978,24.684 44.506,25.157 44.506,25.741 C44.506,26.326 44.978,26.8 45.559,26.8" id="Fill-27" fill="#006AA1"></path>
                    <path d="M18.684,21.888 C18.684,21.888 18.65,18.926 21.124,18.926 C23.875,18.926 36.975,18.936 37.462,18.926 C38.025,18.915 39.941,19.483 39.941,21.854 C39.941,24.083 38.569,24.884 37.557,24.884 C36.548,24.884 32.393,24.875 32.393,24.875 L32.393,39.228 C32.393,40.03 31.996,41.791 29.216,41.791 C26.452,41.791 26.107,40.042 26.107,39.239 L26.107,24.891 C23.381,24.891 22.161,24.913 21.124,24.884 C19.961,24.854 18.65,23.931 18.684,21.888" id="Fill-28" fill="#C6302A"></path>
                </g>
                <g class="logo-svg__banner" id="banner">
                    <polygon id="Fill-29" fill="#FFFFFF" points="208.832 56.999 210.952 56.999 210.952 0.397 208.832 0.397"></polygon>
                    <polygon id="Fill-31" fill="#C6302A" points="0.06 57 208.832 57 208.832 0.397 0.06 0.397"></polygon>
                    <path d="M17.612,31.982 C19.585,31.982 21.112,31.439 22.065,30.372 C22.787,29.551 23.181,28.434 23.181,26.988 C23.181,23.769 20.734,22.291 17.547,22.291 L16.266,22.291 L16.266,31.982 L17.612,31.982 Z M16.628,20.665 C19.305,20.665 21.769,20.895 23.575,22.619 C24.644,23.637 25.284,25.115 25.284,27.136 C25.284,28.762 24.676,30.471 23.378,31.702 C22.163,32.835 20.34,33.575 17.843,33.575 L14.295,33.575 L14.295,20.665 L16.628,20.665 L16.628,20.665 Z" id="Fill-33" fill="#FFFFFF"></path>
                    <path d="M32.037,28.877 C31.922,27.744 31.183,27.12 30.065,27.12 C28.998,27.12 28.21,27.678 27.946,28.877 L32.037,28.877 Z M27.931,30.076 C27.931,31.669 28.981,32.441 30.279,32.441 C31.149,32.441 32.069,32.048 32.727,31.308 L33.663,32.491 C32.743,33.361 31.462,33.821 30.213,33.821 C28.144,33.821 26.14,32.77 26.14,29.797 C26.14,27.332 27.832,25.789 30.115,25.789 C31.971,25.789 33.827,26.874 33.827,29.633 L33.827,30.076 L27.931,30.076 L27.931,30.076 Z" id="Fill-34" fill="#FFFFFF"></path>
                    <path d="M40.321,33.575 L40.321,30.569 C40.321,29.353 40.289,28.877 40.24,28.614 C40.059,27.563 39.501,27.25 38.761,27.25 C38.006,27.25 37.365,27.613 37.069,28.449 C36.889,28.959 36.839,29.649 36.839,30.962 L36.839,33.575 L35.131,33.575 L35.131,25.888 L36.839,25.888 L36.839,26.824 C36.839,26.824 37.546,25.723 39.336,25.723 C40.897,25.723 42.03,26.578 42.03,28.449 L42.03,33.575 L40.321,33.575" id="Fill-35" fill="#FFFFFF"></path>
                    <polyline id="Fill-36" fill="#FFFFFF" points="49.5 25.115 49.5 33.575 47.628 33.575 47.628 20.337 56.498 29.173 56.498 20.665 58.419 20.665 58.419 33.952 49.5 25.115"></polyline>
                    <path d="M64.324,27.07 C62.895,27.07 61.811,28.154 61.811,29.813 C61.811,31.62 62.829,32.392 64.274,32.392 C65.67,32.392 66.722,31.325 66.722,29.731 C66.722,28.122 65.736,27.07 64.324,27.07 Z M64.193,33.788 C61.597,33.788 60.086,32.162 60.086,29.764 C60.086,27.366 61.762,25.674 64.356,25.674 C66.82,25.674 68.447,27.25 68.447,29.731 C68.447,32.146 66.738,33.788 64.193,33.788 L64.193,33.788 Z" id="Fill-37" fill="#FFFFFF"></path>
                    <path d="M74.553,28.007 C74.553,28.007 73.995,27.514 73.255,27.514 C72.73,27.514 72.221,27.727 71.975,28.27 C71.745,28.778 71.679,29.6 71.679,30.798 L71.679,33.575 L69.97,33.575 L69.97,25.888 L71.679,25.888 L71.679,26.988 C71.679,26.988 72.517,25.789 73.732,25.789 C74.668,25.789 75.407,26.413 75.407,26.413 L74.553,28.007" id="Fill-38" fill="#FFFFFF"></path>
                    <path d="M79.406,29.058 C80.457,29.452 81.508,30.076 81.508,31.489 C81.508,33.164 80.162,33.838 78.519,33.838 C77.007,33.838 75.612,33.033 75.612,33.033 L76.236,31.587 C76.236,31.587 77.435,32.409 78.65,32.409 C79.324,32.409 79.833,32.212 79.833,31.571 C79.833,30.962 79.291,30.733 78.519,30.454 L77.731,30.175 C76.762,29.846 75.842,29.255 75.842,27.875 C75.842,26.511 77.04,25.625 78.601,25.625 C80.374,25.625 81.377,26.397 81.377,26.397 L80.556,27.628 C80.556,27.628 79.768,27.054 78.716,27.054 C78.01,27.054 77.501,27.267 77.501,27.826 C77.501,28.27 77.846,28.466 78.618,28.762 L79.406,29.058" id="Fill-39" fill="#FFFFFF"></path>
                    <polyline id="Fill-40" fill="#FFFFFF" points="87.537 33.575 85.024 30.044 84.433 30.618 84.433 33.575 82.725 33.575 82.725 20.665 84.433 20.665 84.433 28.729 87.422 25.888 89.722 25.888 86.306 28.894 89.836 33.575 87.537 33.575"></polyline>
                    <path d="M95.537,28.877 C95.422,27.744 94.683,27.12 93.566,27.12 C92.499,27.12 91.71,27.678 91.448,28.877 L95.537,28.877 Z M91.431,30.076 C91.431,31.669 92.482,32.441 93.779,32.441 C94.65,32.441 95.57,32.048 96.227,31.308 L97.163,32.491 C96.244,33.361 94.962,33.821 93.714,33.821 C91.645,33.821 89.641,32.77 89.641,29.797 C89.641,27.332 91.332,25.789 93.616,25.789 C95.471,25.789 97.327,26.874 97.327,29.633 L97.327,30.076 L91.431,30.076 L91.431,30.076 Z" id="Fill-41" fill="#FFFFFF"></path>
                    <polyline id="Fill-42" fill="#FFFFFF" points="106.249 22.356 106.249 33.575 104.278 33.575 104.278 22.356 100.647 22.356 100.647 20.665 109.878 20.665 109.878 22.356 106.249 22.356"></polyline>
                    <path d="M114.454,33.575 L114.454,32.638 C114.454,32.638 113.748,33.739 111.957,33.739 C110.397,33.739 109.264,32.885 109.264,31.013 L109.264,25.888 L110.972,25.888 L110.972,28.894 C110.972,30.109 111.004,30.569 111.054,30.832 C111.234,31.899 111.793,32.212 112.532,32.212 C113.288,32.212 113.929,31.85 114.224,31.013 C114.404,30.503 114.454,29.813 114.454,28.5 L114.454,25.888 L116.162,25.888 L116.162,33.575 L114.454,33.575" id="Fill-43" fill="#FFFFFF"></path>
                    <path d="M122.733,28.007 C122.733,28.007 122.176,27.514 121.436,27.514 C120.91,27.514 120.401,27.727 120.155,28.27 C119.925,28.778 119.859,29.6 119.859,30.798 L119.859,33.575 L118.151,33.575 L118.151,25.888 L119.859,25.888 L119.859,26.988 C119.859,26.988 120.697,25.789 121.912,25.789 C122.848,25.789 123.588,26.413 123.588,26.413 L122.733,28.007" id="Fill-44" fill="#FFFFFF"></path>
                    <path d="M124.563,33.575 L126.272,33.575 L126.272,25.888 L124.563,25.888 L124.563,33.575 Z M124.563,24.081 L126.272,24.081 L126.272,22.159 L124.563,22.159 L124.563,24.081 Z" id="Fill-45" fill="#FFFFFF"></path>
                    <path d="M131.467,29.058 C132.519,29.452 133.571,30.076 133.571,31.489 C133.571,33.164 132.223,33.838 130.582,33.838 C129.071,33.838 127.673,33.033 127.673,33.033 L128.298,31.587 C128.298,31.587 129.499,32.409 130.713,32.409 C131.386,32.409 131.895,32.212 131.895,31.571 C131.895,30.962 131.353,30.733 130.582,30.454 L129.793,30.175 C128.824,29.846 127.905,29.255 127.905,27.875 C127.905,26.511 129.103,25.625 130.665,25.625 C132.437,25.625 133.44,26.397 133.44,26.397 L132.618,27.628 C132.618,27.628 131.831,27.054 130.778,27.054 C130.073,27.054 129.562,27.267 129.562,27.826 C129.562,28.27 129.908,28.466 130.68,28.762 L131.467,29.058" id="Fill-46" fill="#FFFFFF"></path>
                    <path d="M139.165,33.542 C139.165,33.542 138.753,33.69 138.278,33.69 C137.111,33.69 135.632,33.115 135.632,30.962 L135.632,27.317 L134.352,27.317 L134.352,25.888 L135.632,25.888 L135.632,23.013 L137.341,23.013 L137.341,25.888 L138.901,25.888 L138.901,27.317 L137.341,27.317 L137.341,30.322 C137.341,31.702 137.786,32.162 138.573,32.162 C138.82,32.162 139.165,32.129 139.165,32.129 L139.165,33.542" id="Fill-47" fill="#FFFFFF"></path>
                    <path d="M142.812,27.317 L142.812,33.575 L141.103,33.575 L141.103,27.317 L139.824,27.317 L139.824,25.888 L141.103,25.888 L141.103,23.44 C141.103,21.519 141.911,20.599 143.602,20.599 C144.061,20.599 144.307,20.665 144.307,20.665 L144.307,22.11 L143.978,22.11 C143.108,22.11 142.812,22.257 142.812,23.555 L142.812,25.888 L144.374,25.888 L144.374,27.317 L142.812,27.317" id="Fill-48" fill="#FFFFFF"></path>
                    <path d="M148.875,27.07 C147.446,27.07 146.361,28.154 146.361,29.813 C146.361,31.62 147.379,32.392 148.827,32.392 C150.22,32.392 151.273,31.325 151.273,29.731 C151.273,28.122 150.287,27.07 148.875,27.07 Z M148.743,33.788 C146.149,33.788 144.636,32.162 144.636,29.764 C144.636,27.366 146.312,25.674 148.907,25.674 C151.371,25.674 152.999,27.25 152.999,29.731 C152.999,32.146 151.29,33.788 148.743,33.788 L148.743,33.788 Z" id="Fill-49" fill="#FFFFFF"></path>
                    <path d="M158.918,28.007 C158.918,28.007 158.358,27.514 157.62,27.514 C157.094,27.514 156.586,27.727 156.338,28.27 C156.108,28.778 156.042,29.6 156.042,30.798 L156.042,33.575 L154.334,33.575 L154.334,25.888 L156.042,25.888 L156.042,26.988 C156.042,26.988 156.879,25.789 158.095,25.789 C159.032,25.789 159.77,26.413 159.77,26.413 L158.918,28.007" id="Fill-50" fill="#FFFFFF"></path>
                    <path d="M165.489,28.877 C165.374,27.744 164.632,27.12 163.516,27.12 C162.449,27.12 161.662,27.678 161.399,28.877 L165.489,28.877 Z M161.382,30.076 C161.382,31.669 162.434,32.441 163.731,32.441 C164.602,32.441 165.522,32.048 166.177,31.308 L167.114,32.491 C166.194,33.361 164.912,33.821 163.665,33.821 C161.595,33.821 159.591,32.77 159.591,29.797 C159.591,27.332 161.283,25.789 163.566,25.789 C165.422,25.789 167.28,26.874 167.28,29.633 L167.28,30.076 L161.382,30.076 L161.382,30.076 Z" id="Fill-51" fill="#FFFFFF"></path>
                    <path d="M173.959,33.575 L173.959,30.569 C173.959,29.353 173.926,28.877 173.877,28.614 C173.696,27.563 173.139,27.25 172.398,27.25 C171.644,27.25 171.002,27.613 170.707,28.449 C170.528,28.959 170.478,29.649 170.478,30.962 L170.478,33.575 L168.768,33.575 L168.768,25.888 L170.478,25.888 L170.478,26.824 C170.478,26.824 171.183,25.723 172.974,25.723 C174.536,25.723 175.669,26.578 175.669,28.449 L175.669,33.575 L173.959,33.575" id="Fill-52" fill="#FFFFFF"></path>
                    <path d="M177.36,33.575 L179.071,33.575 L179.071,25.888 L177.36,25.888 L177.36,33.575 Z M177.36,24.081 L179.071,24.081 L179.071,22.159 L177.36,22.159 L177.36,24.081 Z" id="Fill-53" fill="#FFFFFF"></path>
                    <path d="M186.249,33.575 L186.249,30.569 C186.249,29.353 186.215,28.877 186.166,28.614 C185.985,27.563 185.426,27.25 184.687,27.25 C183.932,27.25 183.291,27.613 182.996,28.449 C182.815,28.959 182.765,29.649 182.765,30.962 L182.765,33.575 L181.057,33.575 L181.057,25.888 L182.765,25.888 L182.765,26.824 C182.765,26.824 183.47,25.723 185.262,25.723 C186.823,25.723 187.957,26.578 187.957,28.449 L187.957,33.575 L186.249,33.575" id="Fill-54" fill="#FFFFFF"></path>
                    <path d="M192.907,27.332 C191.578,27.332 190.821,28.401 190.821,29.962 C190.821,31.653 191.824,32.326 192.907,32.326 C194.074,32.326 194.993,31.522 194.993,29.764 C194.993,28.138 194.041,27.332 192.907,27.332 Z M196.62,33.394 C196.62,35.546 195.24,36.81 192.973,36.81 C190.805,36.81 189.624,35.89 189.624,35.89 L190.442,34.511 C190.442,34.511 191.397,35.332 192.907,35.332 C194.403,35.332 194.912,34.774 194.912,33.575 L194.912,32.9 C194.912,32.9 194.221,33.788 192.612,33.788 C190.624,33.788 189.047,32.392 189.047,29.945 C189.047,27.547 190.706,25.789 192.824,25.789 C194.124,25.789 194.894,26.561 194.894,26.561 L194.894,25.888 L196.62,25.888 L196.62,33.394 L196.62,33.394 Z" id="Fill-55" fill="#FFFFFF"></path>
                </g>
            </g>
        </g>
    </g>
</svg>
