<svg preserveAspectRatio="xMinYMin meet" width="268px" height="57px" viewBox="0 0 268 57" version="1.1" xmlns="http://www.w3.org/2000/svg" xmlns:xlink="http://www.w3.org/1999/xlink">
    <g id="Page-1" stroke="none" stroke-width="1" fill="none" fill-rule="evenodd">
        <g id="logo_DNT">
            <polygon id="Fill-1" fill="#C6302A" points="210.944 57 267.544 57 267.544 0.397 210.944 0.397"></polygon>
            <path d="M259.361,28.697 C259.361,39.809 250.353,48.817 239.243,48.817 C228.132,48.817 219.125,39.809 219.125,28.697 C219.125,17.587 228.132,8.58 239.243,8.58 C250.353,8.58 259.361,17.587 259.361,28.697" id="Fill-2" fill="#FFFFFF"></path>
            <path d="M225.045,21.865 L225.235,21.514 C225.528,20.966 225.249,20.484 224.72,20.194 C224.229,19.936 223.663,19.904 223.348,20.49 L223.156,20.849 L225.045,21.865 Z M222.394,21.194 L222.986,20.094 C223.272,19.563 223.978,19 225.062,19.584 C225.996,20.085 226.143,20.894 225.668,21.775 L225.176,22.689 L222.394,21.194 L222.394,21.194 Z" id="Fill-3" fill="#006AA1"></path>
            <polyline id="Fill-4" fill="#006AA1" points="224.908 17.16 226.286 15.644 226.661 15.983 225.731 17.008 226.302 17.526 227.182 16.557 227.555 16.897 226.676 17.866 227.32 18.45 228.28 17.393 228.655 17.732 227.246 19.283 224.908 17.16"></polyline>
            <path d="M227.907,14.204 L228.62,13.731 L230.167,14.542 C230.478,14.708 230.871,14.948 231.024,15.098 L231.048,15.08 C230.946,14.958 230.728,14.654 230.543,14.373 L229.662,13.041 L230.172,12.704 L231.916,15.337 L231.182,15.821 L229.383,14.847 C229.188,14.743 228.949,14.583 228.793,14.446 L228.772,14.46 C228.903,14.634 229.055,14.831 229.202,15.053 L230.158,16.499 L229.649,16.837 L227.907,14.204" id="Fill-5" fill="#006AA1"></path>
            <path d="M234.778,10.893 L235.621,10.753 L236.703,12.124 C236.918,12.403 237.18,12.782 237.257,12.981 L237.287,12.976 C237.245,12.821 237.172,12.455 237.115,12.124 L236.853,10.549 L237.457,10.448 L237.974,13.563 L237.107,13.706 L235.864,12.083 C235.728,11.908 235.574,11.664 235.49,11.476 L235.462,11.481 C235.511,11.693 235.571,11.935 235.612,12.197 L235.897,13.908 L235.293,14.007 L234.778,10.893" id="Fill-6" fill="#006AA1"></path>
            <path d="M241.653,12.173 C241.737,11.375 241.462,10.999 240.996,10.95 C240.53,10.902 240.184,11.213 240.102,12.013 C240.018,12.81 240.291,13.187 240.76,13.236 C241.227,13.284 241.571,12.972 241.653,12.173 Z M239.406,11.939 C239.518,10.859 240.18,10.357 241.049,10.448 C241.919,10.539 242.462,11.166 242.352,12.246 C242.239,13.327 241.577,13.828 240.707,13.738 C239.838,13.648 239.293,13.021 239.406,11.939 L239.406,11.939 Z" id="Fill-7" fill="#006AA1"></path>
            <path d="M245.147,12.886 C245.422,12.989 245.632,12.946 245.749,12.638 C245.86,12.339 245.753,12.181 245.522,12.094 L244.978,11.889 L244.669,12.707 L245.147,12.886 Z M244.963,13.338 L244.499,13.163 L244.04,14.388 L243.416,14.153 L244.526,11.198 L245.768,11.665 C246.408,11.905 246.562,12.362 246.371,12.872 C246.212,13.291 245.926,13.411 245.584,13.424 L245.745,15.029 L245.048,14.767 L244.963,13.338 L244.963,13.338 Z" id="Fill-8" fill="#006AA1"></path>
            <path d="M249.389,14.501 C249.426,14.366 249.49,14.136 249.209,13.945 C248.912,13.743 248.686,13.83 248.586,13.978 C248.497,14.108 248.502,14.204 248.627,14.397 L249.037,15.024 C249.302,15.43 249.348,15.75 249.114,16.095 C248.815,16.535 248.212,16.678 247.548,16.226 C246.944,15.815 246.9,15.281 247.024,14.973 L247.645,15.123 C247.553,15.312 247.522,15.597 247.857,15.826 C248.124,16.005 248.385,15.984 248.525,15.775 C248.62,15.64 248.611,15.485 248.436,15.231 L248.18,14.859 C247.926,14.499 247.711,14.079 247.995,13.665 C248.241,13.302 248.769,13.055 249.473,13.534 C249.907,13.828 250.147,14.149 249.999,14.675 L249.389,14.501" id="Fill-9" fill="#006AA1"></path>
            <polyline id="Fill-10" fill="#006AA1" points="251.94 15.604 252.385 16.097 251.386 16.998 251.394 17.005 253.115 16.907 253.649 17.496 251.698 17.566 251.358 19.671 250.793 19.046 251.121 17.251 251.115 17.245 250.043 18.213 249.598 17.72 251.94 15.604"></polyline>
            <polyline id="Fill-11" fill="#006AA1" points="254.74 19.121 255.719 20.92 255.275 21.162 254.615 19.947 253.936 20.316 254.562 21.464 254.12 21.707 253.495 20.557 252.731 20.972 253.411 22.227 252.966 22.468 251.966 20.629 254.74 19.121"></polyline>
            <polyline id="Fill-12" fill="#006AA1" points="223.469 30.207 223.371 29.348 223.89 29.288 224.165 31.667 223.644 31.727 223.544 30.868 220.927 31.169 220.853 30.508 223.469 30.207"></polyline>
            <path d="M225.257,35.08 L223.457,35.732 C222.644,36.025 222.073,35.771 221.772,34.944 C221.503,34.203 221.782,33.64 222.594,33.346 L224.395,32.694 L224.614,33.295 L222.812,33.946 C222.357,34.111 222.102,34.369 222.264,34.815 C222.424,35.26 222.786,35.295 223.24,35.13 L225.042,34.479 L225.257,35.08" id="Fill-13" fill="#006AA1"></path>
            <path d="M225.399,37.985 C225.562,38.228 225.76,38.315 226.032,38.132 C226.297,37.954 226.302,37.764 226.165,37.557 L225.84,37.075 L225.115,37.562 L225.399,37.985 Z M224.987,38.246 L224.711,37.834 L223.625,38.563 L223.253,38.01 L225.875,36.251 L226.614,37.352 C226.995,37.919 226.856,38.38 226.403,38.685 C226.032,38.933 225.728,38.864 225.441,38.677 L224.64,40.076 L224.224,39.457 L224.987,38.246 L224.987,38.246 Z" id="Fill-14" fill="#006AA1"></path>
            <polyline id="Fill-15" fill="#006AA1" points="228.077 39.158 228.543 39.632 226.297 41.851 225.828 41.376 228.077 39.158"></polyline>
            <path d="M230.417,42.116 C230.457,41.982 230.524,41.752 230.245,41.557 C229.949,41.353 229.721,41.437 229.621,41.583 C229.53,41.715 229.534,41.809 229.658,42.005 L230.061,42.635 C230.321,43.044 230.362,43.365 230.125,43.707 C229.821,44.144 229.217,44.281 228.558,43.821 C227.959,43.403 227.919,42.868 228.047,42.563 L228.668,42.719 C228.574,42.907 228.538,43.19 228.874,43.425 C229.135,43.607 229.397,43.589 229.541,43.381 C229.635,43.247 229.628,43.092 229.456,42.835 L229.203,42.461 C228.956,42.098 228.745,41.676 229.032,41.265 C229.283,40.905 229.813,40.663 230.511,41.149 C230.94,41.448 231.18,41.772 231.025,42.297 L230.417,42.116" id="Fill-16" fill="#006AA1"></path>
            <polyline id="Fill-17" fill="#006AA1" points="232.861 43.146 232.061 42.82 232.26 42.336 234.475 43.244 234.278 43.728 233.477 43.399 232.478 45.836 231.864 45.585 232.861 43.146"></polyline>
            <polyline id="Fill-18" fill="#006AA1" points="235.553 43.527 237.581 43.88 237.495 44.379 236.121 44.139 235.974 44.981 237.291 45.211 237.203 45.71 235.887 45.48 235.666 46.751 235.011 46.637 235.553 43.527"></polyline>
            <path d="M241.022,45.408 C240.97,44.608 240.636,44.283 240.168,44.314 C239.699,44.345 239.412,44.71 239.465,45.511 C239.518,46.312 239.849,46.637 240.319,46.606 C240.787,46.575 241.074,46.21 241.022,45.408 Z M238.765,45.557 C238.696,44.472 239.264,43.867 240.135,43.81 C241.007,43.753 241.65,44.279 241.72,45.363 C241.792,46.448 241.223,47.054 240.352,47.111 C239.481,47.167 238.836,46.641 238.765,45.557 L238.765,45.557 Z" id="Fill-19" fill="#006AA1"></path>
            <path d="M244.305,44.455 C244.584,44.365 244.723,44.198 244.62,43.886 C244.522,43.583 244.338,43.524 244.103,43.602 L243.551,43.781 L243.821,44.612 L244.305,44.455 Z M244.444,44.923 L243.973,45.076 L244.375,46.32 L243.745,46.525 L242.768,43.521 L244.03,43.113 C244.677,42.902 245.084,43.161 245.252,43.681 C245.393,44.106 245.243,44.379 244.985,44.603 L246.11,45.756 L245.4,45.986 L244.444,44.923 L244.444,44.923 Z" id="Fill-20" fill="#006AA1"></path>
            <polyline id="Fill-21" fill="#006AA1" points="246.128 42.25 247.881 41.19 248.143 41.623 246.958 42.34 247.357 42.999 248.477 42.322 248.739 42.756 247.62 43.431 248.069 44.176 249.291 43.437 249.552 43.87 247.761 44.952 246.128 42.25"></polyline>
            <path d="M248.923,40.417 L249.53,39.812 L251.207,40.297 C251.544,40.396 251.978,40.553 252.158,40.669 L252.178,40.647 C252.053,40.546 251.781,40.293 251.542,40.055 L250.412,38.928 L250.844,38.494 L253.079,40.725 L252.459,41.346 L250.5,40.752 C250.29,40.69 250.022,40.58 249.844,40.477 L249.824,40.496 C249.989,40.639 250.176,40.802 250.364,40.99 L251.59,42.216 L251.159,42.649 L248.923,40.417" id="Fill-22" fill="#006AA1"></path>
            <polyline id="Fill-23" fill="#006AA1" points="251.653 37.338 252.018 36.783 254.657 38.518 254.291 39.073 251.653 37.338"></polyline>
            <path d="M252.768,35.571 L253.082,34.775 L254.815,34.555 C255.166,34.513 255.625,34.484 255.834,34.52 L255.845,34.491 C255.691,34.449 255.34,34.324 255.028,34.2 L253.543,33.612 L253.768,33.043 L256.703,34.206 L256.379,35.022 L254.348,35.253 C254.127,35.28 253.84,35.285 253.633,35.26 L253.624,35.286 C253.832,35.353 254.069,35.429 254.315,35.525 L255.927,36.164 L255.703,36.733 L252.768,35.571" id="Fill-24" fill="#006AA1"></path>
            <path d="M255.196,29.918 C255.015,29.915 254.702,30.127 254.665,30.449 C254.61,30.916 254.916,31.265 255.713,31.357 C256.511,31.452 256.89,31.184 256.945,30.717 C256.97,30.501 256.919,30.286 256.881,30.156 L256.177,30.073 L256.114,30.614 L255.628,30.558 L255.765,29.382 L257.246,29.556 C257.348,29.759 257.51,30.243 257.448,30.775 C257.345,31.644 256.711,32.181 255.632,32.054 C254.552,31.927 254.061,31.258 254.161,30.391 C254.249,29.646 254.624,29.395 255.107,29.287 L255.196,29.918" id="Fill-25" fill="#006AA1"></path>
            <path d="M222.743,26.8 C223.328,26.8 223.801,26.326 223.801,25.741 C223.801,25.157 223.328,24.684 222.743,24.684 C222.158,24.684 221.686,25.157 221.686,25.741 C221.686,26.326 222.158,26.8 222.743,26.8" id="Fill-26" fill="#006AA1"></path>
            <path d="M255.559,26.8 C256.147,26.8 256.618,26.326 256.618,25.741 C256.618,25.157 256.147,24.684 255.559,24.684 C254.978,24.684 254.506,25.157 254.506,25.741 C254.506,26.326 254.978,26.8 255.559,26.8" id="Fill-27" fill="#006AA1"></path>
            <path d="M228.684,21.888 C228.684,21.888 228.65,18.926 231.124,18.926 C233.875,18.926 246.975,18.936 247.462,18.926 C248.025,18.915 249.941,19.483 249.941,21.854 C249.941,24.083 248.569,24.884 247.557,24.884 C246.548,24.884 242.393,24.875 242.393,24.875 L242.393,39.228 C242.393,40.03 241.996,41.791 239.216,41.791 C236.452,41.791 236.107,40.042 236.107,39.239 L236.107,24.891 C233.381,24.891 232.161,24.913 231.124,24.884 C229.961,24.854 228.65,23.931 228.684,21.888" id="Fill-28" fill="#C6302A"></path>
            <g id="Group-32">
                <polygon id="Fill-29" fill="#FFFFFF" points="208.832 56.999 210.952 56.999 210.952 0.397 208.832 0.397"></polygon>
                <polygon id="Fill-31" fill="#C6302A" points="0.06 57 208.832 57 208.832 0.397 0.06 0.397"></polygon>
            </g>
            <path d="M17.612,31.982 C19.585,31.982 21.112,31.439 22.065,30.372 C22.787,29.551 23.181,28.434 23.181,26.988 C23.181,23.769 20.734,22.291 17.547,22.291 L16.266,22.291 L16.266,31.982 L17.612,31.982 Z M16.628,20.665 C19.305,20.665 21.769,20.895 23.575,22.619 C24.644,23.637 25.284,25.115 25.284,27.136 C25.284,28.762 24.676,30.471 23.378,31.702 C22.163,32.835 20.34,33.575 17.843,33.575 L14.295,33.575 L14.295,20.665 L16.628,20.665 L16.628,20.665 Z" id="Fill-33" fill="#FFFFFF"></path>
            <path d="M32.037,28.877 C31.922,27.744 31.183,27.12 30.065,27.12 C28.998,27.12 28.21,27.678 27.946,28.877 L32.037,28.877 Z M27.931,30.076 C27.931,31.669 28.981,32.441 30.279,32.441 C31.149,32.441 32.069,32.048 32.727,31.308 L33.663,32.491 C32.743,33.361 31.462,33.821 30.213,33.821 C28.144,33.821 26.14,32.77 26.14,29.797 C26.14,27.332 27.832,25.789 30.115,25.789 C31.971,25.789 33.827,26.874 33.827,29.633 L33.827,30.076 L27.931,30.076 L27.931,30.076 Z" id="Fill-34" fill="#FFFFFF"></path>
            <path d="M40.321,33.575 L40.321,30.569 C40.321,29.353 40.289,28.877 40.24,28.614 C40.059,27.563 39.501,27.25 38.761,27.25 C38.006,27.25 37.365,27.613 37.069,28.449 C36.889,28.959 36.839,29.649 36.839,30.962 L36.839,33.575 L35.131,33.575 L35.131,25.888 L36.839,25.888 L36.839,26.824 C36.839,26.824 37.546,25.723 39.336,25.723 C40.897,25.723 42.03,26.578 42.03,28.449 L42.03,33.575 L40.321,33.575" id="Fill-35" fill="#FFFFFF"></path>
            <polyline id="Fill-36" fill="#FFFFFF" points="49.5 25.115 49.5 33.575 47.628 33.575 47.628 20.337 56.498 29.173 56.498 20.665 58.419 20.665 58.419 33.952 49.5 25.115"></polyline>
            <path d="M64.324,27.07 C62.895,27.07 61.811,28.154 61.811,29.813 C61.811,31.62 62.829,32.392 64.274,32.392 C65.67,32.392 66.722,31.325 66.722,29.731 C66.722,28.122 65.736,27.07 64.324,27.07 Z M64.193,33.788 C61.597,33.788 60.086,32.162 60.086,29.764 C60.086,27.366 61.762,25.674 64.356,25.674 C66.82,25.674 68.447,27.25 68.447,29.731 C68.447,32.146 66.738,33.788 64.193,33.788 L64.193,33.788 Z" id="Fill-37" fill="#FFFFFF"></path>
            <path d="M74.553,28.007 C74.553,28.007 73.995,27.514 73.255,27.514 C72.73,27.514 72.221,27.727 71.975,28.27 C71.745,28.778 71.679,29.6 71.679,30.798 L71.679,33.575 L69.97,33.575 L69.97,25.888 L71.679,25.888 L71.679,26.988 C71.679,26.988 72.517,25.789 73.732,25.789 C74.668,25.789 75.407,26.413 75.407,26.413 L74.553,28.007" id="Fill-38" fill="#FFFFFF"></path>
            <path d="M79.406,29.058 C80.457,29.452 81.508,30.076 81.508,31.489 C81.508,33.164 80.162,33.838 78.519,33.838 C77.007,33.838 75.612,33.033 75.612,33.033 L76.236,31.587 C76.236,31.587 77.435,32.409 78.65,32.409 C79.324,32.409 79.833,32.212 79.833,31.571 C79.833,30.962 79.291,30.733 78.519,30.454 L77.731,30.175 C76.762,29.846 75.842,29.255 75.842,27.875 C75.842,26.511 77.04,25.625 78.601,25.625 C80.374,25.625 81.377,26.397 81.377,26.397 L80.556,27.628 C80.556,27.628 79.768,27.054 78.716,27.054 C78.01,27.054 77.501,27.267 77.501,27.826 C77.501,28.27 77.846,28.466 78.618,28.762 L79.406,29.058" id="Fill-39" fill="#FFFFFF"></path>
            <polyline id="Fill-40" fill="#FFFFFF" points="87.537 33.575 85.024 30.044 84.433 30.618 84.433 33.575 82.725 33.575 82.725 20.665 84.433 20.665 84.433 28.729 87.422 25.888 89.722 25.888 86.306 28.894 89.836 33.575 87.537 33.575"></polyline>
            <path d="M95.537,28.877 C95.422,27.744 94.683,27.12 93.566,27.12 C92.499,27.12 91.71,27.678 91.448,28.877 L95.537,28.877 Z M91.431,30.076 C91.431,31.669 92.482,32.441 93.779,32.441 C94.65,32.441 95.57,32.048 96.227,31.308 L97.163,32.491 C96.244,33.361 94.962,33.821 93.714,33.821 C91.645,33.821 89.641,32.77 89.641,29.797 C89.641,27.332 91.332,25.789 93.616,25.789 C95.471,25.789 97.327,26.874 97.327,29.633 L97.327,30.076 L91.431,30.076 L91.431,30.076 Z" id="Fill-41" fill="#FFFFFF"></path>
            <polyline id="Fill-42" fill="#FFFFFF" points="106.249 22.356 106.249 33.575 104.278 33.575 104.278 22.356 100.647 22.356 100.647 20.665 109.878 20.665 109.878 22.356 106.249 22.356"></polyline>
            <path d="M114.454,33.575 L114.454,32.638 C114.454,32.638 113.748,33.739 111.957,33.739 C110.397,33.739 109.264,32.885 109.264,31.013 L109.264,25.888 L110.972,25.888 L110.972,28.894 C110.972,30.109 111.004,30.569 111.054,30.832 C111.234,31.899 111.793,32.212 112.532,32.212 C113.288,32.212 113.929,31.85 114.224,31.013 C114.404,30.503 114.454,29.813 114.454,28.5 L114.454,25.888 L116.162,25.888 L116.162,33.575 L114.454,33.575" id="Fill-43" fill="#FFFFFF"></path>
            <path d="M122.733,28.007 C122.733,28.007 122.176,27.514 121.436,27.514 C120.91,27.514 120.401,27.727 120.155,28.27 C119.925,28.778 119.859,29.6 119.859,30.798 L119.859,33.575 L118.151,33.575 L118.151,25.888 L119.859,25.888 L119.859,26.988 C119.859,26.988 120.697,25.789 121.912,25.789 C122.848,25.789 123.588,26.413 123.588,26.413 L122.733,28.007" id="Fill-44" fill="#FFFFFF"></path>
            <path d="M124.563,33.575 L126.272,33.575 L126.272,25.888 L124.563,25.888 L124.563,33.575 Z M124.563,24.081 L126.272,24.081 L126.272,22.159 L124.563,22.159 L124.563,24.081 Z" id="Fill-45" fill="#FFFFFF"></path>
            <path d="M131.467,29.058 C132.519,29.452 133.571,30.076 133.571,31.489 C133.571,33.164 132.223,33.838 130.582,33.838 C129.071,33.838 127.673,33.033 127.673,33.033 L128.298,31.587 C128.298,31.587 129.499,32.409 130.713,32.409 C131.386,32.409 131.895,32.212 131.895,31.571 C131.895,30.962 131.353,30.733 130.582,30.454 L129.793,30.175 C128.824,29.846 127.905,29.255 127.905,27.875 C127.905,26.511 129.103,25.625 130.665,25.625 C132.437,25.625 133.44,26.397 133.44,26.397 L132.618,27.628 C132.618,27.628 131.831,27.054 130.778,27.054 C130.073,27.054 129.562,27.267 129.562,27.826 C129.562,28.27 129.908,28.466 130.68,28.762 L131.467,29.058" id="Fill-46" fill="#FFFFFF"></path>
            <path d="M139.165,33.542 C139.165,33.542 138.753,33.69 138.278,33.69 C137.111,33.69 135.632,33.115 135.632,30.962 L135.632,27.317 L134.352,27.317 L134.352,25.888 L135.632,25.888 L135.632,23.013 L137.341,23.013 L137.341,25.888 L138.901,25.888 L138.901,27.317 L137.341,27.317 L137.341,30.322 C137.341,31.702 137.786,32.162 138.573,32.162 C138.82,32.162 139.165,32.129 139.165,32.129 L139.165,33.542" id="Fill-47" fill="#FFFFFF"></path>
            <path d="M142.812,27.317 L142.812,33.575 L141.103,33.575 L141.103,27.317 L139.824,27.317 L139.824,25.888 L141.103,25.888 L141.103,23.44 C141.103,21.519 141.911,20.599 143.602,20.599 C144.061,20.599 144.307,20.665 144.307,20.665 L144.307,22.11 L143.978,22.11 C143.108,22.11 142.812,22.257 142.812,23.555 L142.812,25.888 L144.374,25.888 L144.374,27.317 L142.812,27.317" id="Fill-48" fill="#FFFFFF"></path>
            <path d="M148.875,27.07 C147.446,27.07 146.361,28.154 146.361,29.813 C146.361,31.62 147.379,32.392 148.827,32.392 C150.22,32.392 151.273,31.325 151.273,29.731 C151.273,28.122 150.287,27.07 148.875,27.07 Z M148.743,33.788 C146.149,33.788 144.636,32.162 144.636,29.764 C144.636,27.366 146.312,25.674 148.907,25.674 C151.371,25.674 152.999,27.25 152.999,29.731 C152.999,32.146 151.29,33.788 148.743,33.788 L148.743,33.788 Z" id="Fill-49" fill="#FFFFFF"></path>
            <path d="M158.918,28.007 C158.918,28.007 158.358,27.514 157.62,27.514 C157.094,27.514 156.586,27.727 156.338,28.27 C156.108,28.778 156.042,29.6 156.042,30.798 L156.042,33.575 L154.334,33.575 L154.334,25.888 L156.042,25.888 L156.042,26.988 C156.042,26.988 156.879,25.789 158.095,25.789 C159.032,25.789 159.77,26.413 159.77,26.413 L158.918,28.007" id="Fill-50" fill="#FFFFFF"></path>
            <path d="M165.489,28.877 C165.374,27.744 164.632,27.12 163.516,27.12 C162.449,27.12 161.662,27.678 161.399,28.877 L165.489,28.877 Z M161.382,30.076 C161.382,31.669 162.434,32.441 163.731,32.441 C164.602,32.441 165.522,32.048 166.177,31.308 L167.114,32.491 C166.194,33.361 164.912,33.821 163.665,33.821 C161.595,33.821 159.591,32.77 159.591,29.797 C159.591,27.332 161.283,25.789 163.566,25.789 C165.422,25.789 167.28,26.874 167.28,29.633 L167.28,30.076 L161.382,30.076 L161.382,30.076 Z" id="Fill-51" fill="#FFFFFF"></path>
            <path d="M173.959,33.575 L173.959,30.569 C173.959,29.353 173.926,28.877 173.877,28.614 C173.696,27.563 173.139,27.25 172.398,27.25 C171.644,27.25 171.002,27.613 170.707,28.449 C170.528,28.959 170.478,29.649 170.478,30.962 L170.478,33.575 L168.768,33.575 L168.768,25.888 L170.478,25.888 L170.478,26.824 C170.478,26.824 171.183,25.723 172.974,25.723 C174.536,25.723 175.669,26.578 175.669,28.449 L175.669,33.575 L173.959,33.575" id="Fill-52" fill="#FFFFFF"></path>
            <path d="M177.36,33.575 L179.071,33.575 L179.071,25.888 L177.36,25.888 L177.36,33.575 Z M177.36,24.081 L179.071,24.081 L179.071,22.159 L177.36,22.159 L177.36,24.081 Z" id="Fill-53" fill="#FFFFFF"></path>
            <path d="M186.249,33.575 L186.249,30.569 C186.249,29.353 186.215,28.877 186.166,28.614 C185.985,27.563 185.426,27.25 184.687,27.25 C183.932,27.25 183.291,27.613 182.996,28.449 C182.815,28.959 182.765,29.649 182.765,30.962 L182.765,33.575 L181.057,33.575 L181.057,25.888 L182.765,25.888 L182.765,26.824 C182.765,26.824 183.47,25.723 185.262,25.723 C186.823,25.723 187.957,26.578 187.957,28.449 L187.957,33.575 L186.249,33.575" id="Fill-54" fill="#FFFFFF"></path>
            <path d="M192.907,27.332 C191.578,27.332 190.821,28.401 190.821,29.962 C190.821,31.653 191.824,32.326 192.907,32.326 C194.074,32.326 194.993,31.522 194.993,29.764 C194.993,28.138 194.041,27.332 192.907,27.332 Z M196.62,33.394 C196.62,35.546 195.24,36.81 192.973,36.81 C190.805,36.81 189.624,35.89 189.624,35.89 L190.442,34.511 C190.442,34.511 191.397,35.332 192.907,35.332 C194.403,35.332 194.912,34.774 194.912,33.575 L194.912,32.9 C194.912,32.9 194.221,33.788 192.612,33.788 C190.624,33.788 189.047,32.392 189.047,29.945 C189.047,27.547 190.706,25.789 192.824,25.789 C194.124,25.789 194.894,26.561 194.894,26.561 L194.894,25.888 L196.62,25.888 L196.62,33.394 L196.62,33.394 Z" id="Fill-55" fill="#FFFFFF"></path>
        </g>
    </g>
</svg>
