<svg class="logo-svg" preserveAspectRatio="xMinYMin meet" width="57px" height="57px" viewBox="0 0 57 57" version="1.1" xmlns="http://www.w3.org/2000/svg" xmlns:xlink="http://www.w3.org/1999/xlink">
    <g id="Page-1" stroke="none" stroke-width="1" fill="none" fill-rule="evenodd">
        <polygon id="Fill-1" fill="#C6302A" points="0.06 57 56.545 57 56.545 0.454 0.06 0.454"></polygon>
        <path d="M48.371,28.726 C48.371,39.827 39.372,48.825 28.272,48.825 C17.173,48.825 8.175,39.827 8.175,28.726 C8.175,17.627 17.173,8.629 28.272,8.629 C39.372,8.629 48.371,17.627 48.371,28.726" id="Fill-3" fill="#FFFFFF"></path>
        <path d="M14.089,21.9 L14.278,21.549 C14.571,21.003 14.292,20.521 13.764,20.231 C13.274,19.974 12.708,19.941 12.393,20.527 L12.201,20.885 L14.089,21.9 Z M11.44,21.231 L12.032,20.131 C12.317,19.6 13.022,19.039 14.106,19.622 C15.039,20.122 15.183,20.93 14.71,21.811 L14.219,22.725 L11.44,21.231 L11.44,21.231 Z" id="Fill-4" fill="#006AA1"></path>
        <polyline id="Fill-5" fill="#006AA1" points="13.952 17.201 15.328 15.685 15.702 16.024 14.773 17.048 15.344 17.566 16.222 16.598 16.596 16.938 15.717 17.906 16.36 18.489 17.319 17.433 17.693 17.772 16.287 19.321 13.952 17.201"></polyline>
        <path d="M16.946,14.247 L17.659,13.775 L19.205,14.585 C19.516,14.751 19.908,14.991 20.061,15.14 L20.085,15.123 C19.983,15 19.767,14.697 19.581,14.416 L18.701,13.086 L19.21,12.749 L20.952,15.379 L20.219,15.863 L18.423,14.889 C18.227,14.785 17.989,14.626 17.833,14.489 L17.812,14.503 C17.942,14.677 18.093,14.874 18.241,15.096 L19.197,16.54 L18.686,16.878 L16.946,14.247" id="Fill-6" fill="#006AA1"></path>
        <path d="M23.811,10.939 L24.653,10.8 L25.734,12.17 C25.95,12.448 26.211,12.827 26.288,13.026 L26.319,13.021 C26.274,12.866 26.203,12.501 26.146,12.169 L25.885,10.596 L26.488,10.495 L27.003,13.607 L26.139,13.75 L24.897,12.129 C24.759,11.954 24.606,11.71 24.522,11.522 L24.496,11.527 C24.544,11.739 24.603,11.98 24.645,12.242 L24.929,13.952 L24.326,14.051 L23.811,10.939" id="Fill-7" fill="#006AA1"></path>
        <path d="M30.68,12.219 C30.764,11.422 30.49,11.046 30.024,10.997 C29.556,10.949 29.212,11.26 29.13,12.058 C29.047,12.855 29.319,13.231 29.786,13.28 C30.254,13.328 30.598,13.017 30.68,12.219 Z M28.434,11.985 C28.546,10.906 29.209,10.404 30.077,10.495 C30.945,10.586 31.489,11.212 31.377,12.291 C31.264,13.371 30.602,13.872 29.734,13.782 C28.867,13.691 28.321,13.065 28.434,11.985 L28.434,11.985 Z" id="Fill-8" fill="#006AA1"></path>
        <path d="M34.171,12.931 C34.444,13.034 34.655,12.99 34.771,12.683 C34.883,12.384 34.776,12.226 34.545,12.139 L34.002,11.934 L33.693,12.751 L34.171,12.931 Z M33.987,13.382 L33.522,13.207 L33.062,14.431 L32.44,14.196 L33.55,11.244 L34.791,11.71 C35.43,11.951 35.584,12.407 35.392,12.917 C35.236,13.335 34.949,13.455 34.607,13.468 L34.767,15.072 L34.071,14.81 L33.987,13.382 L33.987,13.382 Z" id="Fill-9" fill="#006AA1"></path>
        <path d="M38.407,14.544 C38.445,14.409 38.509,14.18 38.228,13.988 C37.932,13.787 37.706,13.874 37.606,14.021 C37.516,14.152 37.521,14.247 37.647,14.44 L38.056,15.067 C38.321,15.472 38.367,15.792 38.132,16.137 C37.833,16.576 37.233,16.718 36.569,16.268 C35.965,15.856 35.922,15.323 36.044,15.016 L36.667,15.166 C36.574,15.355 36.542,15.639 36.878,15.868 C37.143,16.047 37.404,16.025 37.545,15.817 C37.638,15.682 37.631,15.527 37.455,15.273 L37.2,14.901 C36.946,14.542 36.732,14.123 37.014,13.709 C37.261,13.346 37.788,13.1 38.491,13.578 C38.924,13.872 39.166,14.192 39.017,14.718 L38.407,14.544" id="Fill-10" fill="#006AA1"></path>
        <polyline id="Fill-11" fill="#006AA1" points="40.956 15.646 41.399 16.139 40.403 17.038 40.412 17.045 42.13 16.948 42.663 17.536 40.714 17.606 40.376 19.71 39.811 19.085 40.138 17.292 40.131 17.285 39.061 18.252 38.616 17.759 40.956 15.646"></polyline>
        <polyline id="Fill-12" fill="#006AA1" points="43.754 19.16 44.732 20.957 44.288 21.198 43.628 19.985 42.951 20.353 43.576 21.501 43.133 21.742 42.508 20.594 41.745 21.008 42.426 22.262 41.982 22.503 40.984 20.666 43.754 19.16"></polyline>
        <polyline id="Fill-13" fill="#006AA1" points="12.514 30.234 12.416 29.376 12.935 29.316 13.207 31.692 12.689 31.753 12.589 30.895 9.976 31.195 9.9 30.535 12.514 30.234"></polyline>
        <path d="M14.301,35.102 L12.502,35.753 C11.69,36.047 11.118,35.792 10.819,34.967 C10.551,34.226 10.829,33.664 11.64,33.37 L13.439,32.719 L13.657,33.318 L11.858,33.97 C11.403,34.134 11.147,34.392 11.31,34.838 C11.47,35.282 11.831,35.318 12.286,35.152 L14.085,34.502 L14.301,35.102" id="Fill-14" fill="#006AA1"></path>
        <path d="M14.442,38.004 C14.606,38.248 14.802,38.334 15.074,38.151 C15.339,37.973 15.344,37.783 15.206,37.577 L14.883,37.095 L14.158,37.581 L14.442,38.004 Z M14.031,38.265 L13.754,37.854 L12.669,38.582 L12.298,38.03 L14.918,36.272 L15.655,37.372 C16.036,37.939 15.897,38.4 15.445,38.703 C15.073,38.951 14.772,38.883 14.485,38.696 L13.684,40.093 L13.269,39.475 L14.031,38.265 L14.031,38.265 Z" id="Fill-15" fill="#006AA1"></path>
        <polyline id="Fill-16" fill="#006AA1" points="17.116 39.176 17.583 39.649 15.339 41.866 14.871 41.393 17.116 39.176"></polyline>
        <path d="M19.455,42.131 C19.494,41.997 19.563,41.768 19.282,41.573 C18.988,41.368 18.76,41.454 18.659,41.599 C18.567,41.73 18.572,41.825 18.696,42.02 L19.099,42.649 C19.359,43.059 19.4,43.379 19.163,43.72 C18.858,44.157 18.256,44.294 17.598,43.835 C16.999,43.417 16.96,42.882 17.086,42.578 L17.707,42.733 C17.613,42.921 17.578,43.205 17.913,43.439 C18.174,43.621 18.434,43.603 18.579,43.395 C18.674,43.261 18.667,43.106 18.495,42.85 L18.242,42.476 C17.994,42.113 17.784,41.692 18.07,41.281 C18.322,40.921 18.852,40.68 19.549,41.165 C19.978,41.464 20.217,41.788 20.063,42.313 L19.455,42.131" id="Fill-17" fill="#006AA1"></path>
        <polyline id="Fill-18" fill="#006AA1" points="21.898 43.161 21.097 42.835 21.295 42.351 23.509 43.258 23.312 43.741 22.512 43.413 21.515 45.848 20.899 45.597 21.898 43.161"></polyline>
        <polyline id="Fill-19" fill="#006AA1" points="24.586 43.541 26.611 43.895 26.524 44.392 25.154 44.151 25.007 44.994 26.321 45.223 26.233 45.722 24.92 45.492 24.697 46.762 24.044 46.647 24.586 43.541"></polyline>
        <path d="M30.05,45.42 C29.997,44.621 29.664,44.296 29.196,44.327 C28.728,44.357 28.441,44.723 28.494,45.523 C28.546,46.323 28.878,46.647 29.347,46.617 C29.814,46.586 30.101,46.221 30.05,45.42 Z M27.795,45.569 C27.724,44.485 28.292,43.88 29.162,43.824 C30.033,43.767 30.678,44.293 30.748,45.375 C30.818,46.459 30.25,47.064 29.378,47.122 C28.508,47.177 27.866,46.651 27.795,45.569 L27.795,45.569 Z" id="Fill-20" fill="#006AA1"></path>
        <path d="M33.33,44.468 C33.607,44.377 33.746,44.211 33.643,43.899 C33.544,43.597 33.363,43.539 33.128,43.615 L32.575,43.794 L32.845,44.625 L33.33,44.468 Z M33.467,44.935 L32.996,45.088 L33.399,46.331 L32.768,46.536 L31.793,43.536 L33.053,43.127 C33.702,42.916 34.108,43.176 34.275,43.695 C34.415,44.12 34.265,44.392 34.007,44.616 L35.13,45.768 L34.423,45.998 L33.467,44.935 L33.467,44.935 Z" id="Fill-21" fill="#006AA1"></path>
        <polyline id="Fill-22" fill="#006AA1" points="35.15 42.266 36.901 41.207 37.163 41.639 35.979 42.355 36.378 43.014 37.496 42.338 37.758 42.77 36.639 43.445 37.088 44.189 38.309 43.45 38.57 43.884 36.781 44.965 35.15 42.266"></polyline>
        <path d="M37.944,40.434 L38.548,39.83 L40.224,40.315 C40.561,40.414 40.994,40.569 41.174,40.686 L41.195,40.664 C41.07,40.563 40.797,40.31 40.559,40.072 L39.43,38.946 L39.862,38.513 L42.094,40.741 L41.475,41.362 L39.519,40.769 C39.306,40.707 39.041,40.597 38.861,40.493 L38.843,40.513 C39.006,40.656 39.193,40.818 39.381,41.006 L40.606,42.231 L40.176,42.664 L37.944,40.434" id="Fill-23" fill="#006AA1"></path>
        <polyline id="Fill-24" fill="#006AA1" points="40.669 37.358 41.034 36.803 43.669 38.537 43.304 39.092 40.669 37.358"></polyline>
        <path d="M41.783,35.592 L42.097,34.798 L43.827,34.578 C44.178,34.535 44.637,34.507 44.847,34.543 L44.858,34.514 C44.704,34.472 44.354,34.348 44.04,34.223 L42.558,33.636 L42.782,33.068 L45.714,34.228 L45.392,35.044 L43.362,35.275 C43.141,35.301 42.854,35.307 42.648,35.282 L42.639,35.307 C42.846,35.375 43.083,35.45 43.329,35.547 L44.94,36.185 L44.716,36.754 L41.783,35.592" id="Fill-25" fill="#006AA1"></path>
        <path d="M44.208,29.945 C44.029,29.941 43.714,30.154 43.677,30.476 C43.623,30.942 43.929,31.291 44.727,31.383 C45.522,31.478 45.901,31.21 45.956,30.744 C45.981,30.528 45.931,30.312 45.892,30.183 L45.188,30.1 L45.125,30.641 L44.64,30.585 L44.778,29.41 L46.256,29.583 C46.359,29.787 46.52,30.27 46.458,30.802 C46.356,31.669 45.723,32.206 44.644,32.079 C43.567,31.953 43.075,31.284 43.175,30.418 C43.263,29.674 43.636,29.422 44.121,29.315 L44.208,29.945" id="Fill-26" fill="#006AA1"></path>
        <path d="M11.789,26.83 C12.373,26.83 12.845,26.357 12.845,25.773 C12.845,25.19 12.373,24.716 11.789,24.716 C11.205,24.716 10.732,25.19 10.732,25.773 C10.732,26.357 11.205,26.83 11.789,26.83" id="Fill-27" fill="#006AA1"></path>
        <path d="M44.572,26.83 C45.16,26.83 45.629,26.357 45.629,25.773 C45.629,25.19 45.16,24.716 44.572,24.716 C43.992,24.716 43.519,25.19 43.519,25.773 C43.519,26.357 43.992,26.83 44.572,26.83" id="Fill-28" fill="#006AA1"></path>
        <path d="M17.724,21.923 C17.724,21.923 17.69,18.964 20.161,18.964 C22.911,18.964 35.997,18.974 36.483,18.964 C37.044,18.953 38.959,19.521 38.959,21.889 C38.959,24.116 37.588,24.917 36.578,24.917 C35.57,24.917 31.419,24.908 31.419,24.908 L31.419,39.247 C31.419,40.048 31.021,41.806 28.246,41.806 C25.483,41.806 25.139,40.06 25.139,39.258 L25.139,24.923 C22.416,24.923 21.197,24.944 20.161,24.917 C18.999,24.886 17.69,23.964 17.724,21.923" id="Fill-29" fill="#C6302A"></path>
    </g>
</svg>
